Normalized EMG Linear Envelopes
nRows=65
nColumns=17

endheader
time	        VM	        VL	        RF	       GRA	        TA	   ADDLONG	   SEMIMEM	      BFLH	        GM	        GL	       TFL	   GLUTMAX	   GLUTMED	      PIRI	    OBTINT	        QF	
2.5665	  0.297545	  0.523700	  0.040945	  0.154317	  0.320522	  0.043924	  0.344404	  0.470266	  0.360190	  0.171517	  0.023715	  0.548429	  0.220428	  0.710581	  0.781220	  0.415827	
2.567	  0.299235	  0.528702	  0.041304	  0.153482	  0.318454	  0.043927	  0.341179	  0.468855	  0.360780	  0.173544	  0.024084	  0.553916	  0.221930	  0.711997	  0.783301	  0.418507	
2.5675	  0.300892	  0.533691	  0.041661	  0.152658	  0.316332	  0.043935	  0.337964	  0.467420	  0.361373	  0.175591	  0.024456	  0.559350	  0.223461	  0.713423	  0.785521	  0.421140	
2.568	  0.302517	  0.538666	  0.042014	  0.151846	  0.314158	  0.043949	  0.334760	  0.465963	  0.361968	  0.177659	  0.024830	  0.564728	  0.225024	  0.714858	  0.787882	  0.423726	
2.5685	  0.304108	  0.543626	  0.042363	  0.151044	  0.311936	  0.043968	  0.331569	  0.464482	  0.362566	  0.179746	  0.025207	  0.570047	  0.226618	  0.716303	  0.790384	  0.426263	
2.569	  0.305663	  0.548570	  0.042709	  0.150254	  0.309667	  0.043992	  0.328393	  0.462979	  0.363166	  0.181854	  0.025586	  0.575306	  0.228244	  0.717758	  0.793027	  0.428751	
2.5695	  0.307182	  0.553497	  0.043052	  0.149476	  0.307354	  0.044021	  0.325233	  0.461453	  0.363769	  0.183981	  0.025968	  0.580501	  0.229902	  0.719222	  0.795812	  0.431187	
2.57	  0.308663	  0.558406	  0.043390	  0.148711	  0.305000	  0.044056	  0.322091	  0.459904	  0.364375	  0.186127	  0.026351	  0.585630	  0.231593	  0.720696	  0.798739	  0.433572	
2.5705	  0.310106	  0.563298	  0.043725	  0.147959	  0.302607	  0.044095	  0.318968	  0.458333	  0.364984	  0.188292	  0.026737	  0.590689	  0.233318	  0.722179	  0.801811	  0.435903	
2.571	  0.311508	  0.568171	  0.044055	  0.147220	  0.300178	  0.044140	  0.315867	  0.456738	  0.365595	  0.190475	  0.027124	  0.595676	  0.235076	  0.723671	  0.805028	  0.438181	
2.5715	  0.312868	  0.573027	  0.044381	  0.146495	  0.297716	  0.044190	  0.312788	  0.455120	  0.366208	  0.192677	  0.027514	  0.600587	  0.236869	  0.725170	  0.808393	  0.440404	
2.572	  0.314186	  0.577864	  0.044703	  0.145783	  0.295223	  0.044244	  0.309733	  0.453480	  0.366824	  0.194896	  0.027905	  0.605420	  0.238696	  0.726677	  0.811907	  0.442572	
2.5725	  0.315460	  0.582683	  0.045020	  0.145086	  0.292702	  0.044304	  0.306705	  0.451817	  0.367441	  0.197132	  0.028297	  0.610170	  0.240558	  0.728190	  0.815572	  0.444686	
2.573	  0.316689	  0.587485	  0.045333	  0.144402	  0.290155	  0.044368	  0.303703	  0.450133	  0.368061	  0.199384	  0.028691	  0.614834	  0.242455	  0.729708	  0.819392	  0.446744	
2.5735	  0.317871	  0.592267	  0.045642	  0.143734	  0.287584	  0.044437	  0.300731	  0.448427	  0.368681	  0.201653	  0.029087	  0.619409	  0.244387	  0.731229	  0.823367	  0.448746	
2.574	  0.319006	  0.597031	  0.045946	  0.143080	  0.284992	  0.044511	  0.297790	  0.446700	  0.369302	  0.203937	  0.029483	  0.623891	  0.246354	  0.732752	  0.827500	  0.450692	
2.5745	  0.320092	  0.601776	  0.046245	  0.142442	  0.282381	  0.044589	  0.294882	  0.444953	  0.369923	  0.206236	  0.029881	  0.628276	  0.248356	  0.734275	  0.831792	  0.452582	
2.575	  0.321127	  0.606500	  0.046541	  0.141818	  0.279753	  0.044672	  0.292008	  0.443186	  0.370545	  0.208550	  0.030279	  0.632562	  0.250394	  0.735797	  0.836245	  0.454415	
2.5755	  0.322111	  0.611204	  0.046832	  0.141210	  0.277110	  0.044758	  0.289170	  0.441401	  0.371166	  0.210877	  0.030679	  0.636745	  0.252467	  0.737316	  0.840859	  0.456191	
2.576	  0.323042	  0.615888	  0.047118	  0.140618	  0.274454	  0.044849	  0.286370	  0.439598	  0.371786	  0.213219	  0.031079	  0.640823	  0.254576	  0.738829	  0.845637	  0.457909	
2.5765	  0.323920	  0.620549	  0.047401	  0.140042	  0.271788	  0.044944	  0.283609	  0.437780	  0.372406	  0.215573	  0.031480	  0.644793	  0.256720	  0.740335	  0.850578	  0.459568	
2.577	  0.324743	  0.625189	  0.047679	  0.139482	  0.269112	  0.045043	  0.280888	  0.435948	  0.373025	  0.217941	  0.031881	  0.648653	  0.258898	  0.741832	  0.855685	  0.461168	
2.5775	  0.325509	  0.629806	  0.047953	  0.138938	  0.266429	  0.045145	  0.278209	  0.434104	  0.373644	  0.220320	  0.032283	  0.652399	  0.261112	  0.743318	  0.860958	  0.462708	
2.578	  0.326219	  0.634400	  0.048223	  0.138410	  0.263741	  0.045250	  0.275574	  0.432251	  0.374263	  0.222711	  0.032685	  0.656030	  0.263361	  0.744792	  0.866397	  0.464187	
2.5785	  0.326871	  0.638972	  0.048490	  0.137899	  0.261049	  0.045359	  0.272983	  0.430392	  0.374882	  0.225114	  0.033088	  0.659544	  0.265645	  0.746250	  0.872004	  0.465604	
2.579	  0.327464	  0.643521	  0.048752	  0.137405	  0.258355	  0.045472	  0.270438	  0.428529	  0.375504	  0.227527	  0.033491	  0.662936	  0.267962	  0.747690	  0.877780	  0.466959	
2.5795	  0.327999	  0.648046	  0.049011	  0.136928	  0.255661	  0.045587	  0.267940	  0.426663	  0.376128	  0.229952	  0.033894	  0.666206	  0.270314	  0.749110	  0.883724	  0.468251	
2.58	  0.328475	  0.652549	  0.049266	  0.136468	  0.252967	  0.045705	  0.265490	  0.424799	  0.376758	  0.232387	  0.034296	  0.669350	  0.272700	  0.750508	  0.889836	  0.469478	
2.5805	  0.328891	  0.657028	  0.049518	  0.136025	  0.250277	  0.045825	  0.263089	  0.422937	  0.377393	  0.234832	  0.034699	  0.672366	  0.275118	  0.751881	  0.896118	  0.470641	
2.581	  0.329248	  0.661484	  0.049767	  0.135600	  0.247592	  0.045949	  0.260738	  0.421080	  0.378037	  0.237287	  0.035101	  0.675252	  0.277570	  0.753228	  0.902568	  0.471739	
2.5815	  0.329547	  0.665915	  0.050012	  0.135192	  0.244912	  0.046074	  0.258438	  0.419231	  0.378689	  0.239751	  0.035503	  0.678006	  0.280053	  0.754545	  0.909186	  0.472771	
2.582	  0.329786	  0.670322	  0.050254	  0.134802	  0.242240	  0.046202	  0.256189	  0.417391	  0.379352	  0.242225	  0.035905	  0.680627	  0.282568	  0.755832	  0.915973	  0.473737	
2.5825	  0.329968	  0.674704	  0.050492	  0.134430	  0.239578	  0.046331	  0.253993	  0.415561	  0.380025	  0.244706	  0.036306	  0.683111	  0.285114	  0.757086	  0.922927	  0.474635	
2.583	  0.330092	  0.679061	  0.050728	  0.134076	  0.236926	  0.046462	  0.251849	  0.413746	  0.380712	  0.247195	  0.036707	  0.685458	  0.287690	  0.758308	  0.930048	  0.475466	
2.5835	  0.330159	  0.683391	  0.050961	  0.133741	  0.234286	  0.046595	  0.249759	  0.411945	  0.381411	  0.249692	  0.037107	  0.687667	  0.290295	  0.759495	  0.937334	  0.476229	
2.584	  0.330171	  0.687696	  0.051191	  0.133424	  0.231659	  0.046729	  0.247723	  0.410162	  0.382125	  0.252195	  0.037507	  0.689737	  0.292929	  0.760645	  0.944785	  0.476924	
2.5845	  0.330130	  0.691973	  0.051418	  0.133125	  0.229047	  0.046864	  0.245742	  0.408398	  0.382853	  0.254704	  0.037906	  0.691665	  0.295590	  0.761759	  0.952400	  0.477549	
2.585	  0.330035	  0.696224	  0.051642	  0.132845	  0.226452	  0.047000	  0.243815	  0.406655	  0.383598	  0.257219	  0.038304	  0.693451	  0.298279	  0.762833	  0.960176	  0.478105	
2.5855	  0.329889	  0.700447	  0.051864	  0.132584	  0.223873	  0.047136	  0.241944	  0.404935	  0.384360	  0.259738	  0.038702	  0.695094	  0.300995	  0.763867	  0.968114	  0.478591	
2.586	  0.329692	  0.704643	  0.052083	  0.132341	  0.221313	  0.047273	  0.240129	  0.403239	  0.385139	  0.262263	  0.039099	  0.696592	  0.303736	  0.764858	  0.976213	  0.479008	
2.5865	  0.329446	  0.708812	  0.052301	  0.132117	  0.218773	  0.047410	  0.238369	  0.401570	  0.385937	  0.264791	  0.039495	  0.697945	  0.306502	  0.765806	  0.984471	  0.479356	
2.587	  0.329151	  0.712954	  0.052516	  0.131911	  0.216253	  0.047548	  0.236666	  0.399927	  0.386753	  0.267322	  0.039890	  0.699149	  0.309292	  0.766709	  0.992889	  0.479634	
2.5875	  0.328808	  0.717067	  0.052729	  0.131725	  0.213755	  0.047685	  0.235019	  0.398313	  0.387590	  0.269857	  0.040284	  0.700205	  0.312105	  0.767564	  1.001465	  0.479844	
2.588	  0.328418	  0.721152	  0.052940	  0.131556	  0.211280	  0.047822	  0.233429	  0.396728	  0.388446	  0.272393	  0.040677	  0.701111	  0.314941	  0.768369	  1.010199	  0.479984	
2.5885	  0.327983	  0.725208	  0.053150	  0.131407	  0.208828	  0.047958	  0.231895	  0.395174	  0.389323	  0.274931	  0.041069	  0.701865	  0.317798	  0.769123	  1.019091	  0.480056	
2.589	  0.327503	  0.729233	  0.053359	  0.131276	  0.206402	  0.048095	  0.230417	  0.393651	  0.390221	  0.277470	  0.041460	  0.702466	  0.320676	  0.769823	  1.028138	  0.480058	
2.5895	  0.326979	  0.733227	  0.053566	  0.131163	  0.204000	  0.048230	  0.228996	  0.392161	  0.391140	  0.280009	  0.041849	  0.702914	  0.323573	  0.770466	  1.037341	  0.479992	
2.59	  0.326411	  0.737189	  0.053772	  0.131069	  0.201625	  0.048366	  0.227631	  0.390704	  0.392081	  0.282548	  0.042238	  0.703208	  0.326488	  0.771051	  1.046699	  0.479857	
2.5905	  0.325801	  0.741117	  0.053978	  0.130993	  0.199277	  0.048500	  0.226321	  0.389281	  0.393042	  0.285085	  0.042625	  0.703348	  0.329420	  0.771574	  1.056209	  0.479654	
2.591	  0.325151	  0.745012	  0.054183	  0.130936	  0.196956	  0.048633	  0.225068	  0.387892	  0.394024	  0.287620	  0.043011	  0.703333	  0.332367	  0.772034	  1.065873	  0.479382	
2.5915	  0.324460	  0.748870	  0.054388	  0.130896	  0.194664	  0.048766	  0.223870	  0.386538	  0.395028	  0.290152	  0.043396	  0.703163	  0.335329	  0.772428	  1.075688	  0.479042	
2.592	  0.323731	  0.752692	  0.054592	  0.130874	  0.192401	  0.048897	  0.222727	  0.385218	  0.396053	  0.292680	  0.043779	  0.702839	  0.338305	  0.772755	  1.085653	  0.478634	
2.5925	  0.322966	  0.756476	  0.054796	  0.130870	  0.190167	  0.049028	  0.221639	  0.383935	  0.397100	  0.295203	  0.044160	  0.702361	  0.341292	  0.773012	  1.095767	  0.478160	
2.593	  0.322165	  0.760221	  0.055001	  0.130883	  0.187964	  0.049157	  0.220605	  0.382686	  0.398167	  0.297721	  0.044541	  0.701729	  0.344289	  0.773198	  1.106029	  0.477620	
2.5935	  0.321330	  0.763927	  0.055205	  0.130915	  0.185791	  0.049285	  0.219626	  0.381473	  0.399256	  0.300231	  0.044919	  0.700944	  0.347295	  0.773312	  1.116436	  0.477014	
2.594	  0.320462	  0.767590	  0.055410	  0.130963	  0.183649	  0.049412	  0.218700	  0.380296	  0.400366	  0.302734	  0.045296	  0.700006	  0.350309	  0.773354	  1.126986	  0.476344	
2.5945	  0.319563	  0.771211	  0.055615	  0.131029	  0.181539	  0.049538	  0.217827	  0.379155	  0.401498	  0.305228	  0.045671	  0.698915	  0.353328	  0.773322	  1.137678	  0.475611	
2.595	  0.318634	  0.774788	  0.055820	  0.131111	  0.179462	  0.049663	  0.217006	  0.378049	  0.402651	  0.307711	  0.046044	  0.697674	  0.356351	  0.773219	  1.148508	  0.474815	
2.5955	  0.317676	  0.778318	  0.056026	  0.131211	  0.177416	  0.049787	  0.216238	  0.376978	  0.403826	  0.310184	  0.046416	  0.696283	  0.359376	  0.773043	  1.159473	  0.473957	
2.596	  0.316691	  0.781802	  0.056233	  0.131326	  0.175404	  0.049909	  0.215520	  0.375942	  0.405022	  0.312643	  0.046786	  0.694744	  0.362403	  0.772797	  1.170570	  0.473038	
2.5965	  0.315679	  0.785235	  0.056440	  0.131457	  0.173425	  0.050031	  0.214853	  0.374940	  0.406239	  0.315090	  0.047153	  0.693060	  0.365428	  0.772481	  1.181796	  0.472059	
2.597	  0.314641	  0.788618	  0.056648	  0.131605	  0.171480	  0.050152	  0.214236	  0.373971	  0.407477	  0.317521	  0.047519	  0.691233	  0.368451	  0.772095	  1.193147	  0.471019	
2.5975	  0.313579	  0.791948	  0.056857	  0.131767	  0.169568	  0.050272	  0.213668	  0.373036	  0.408735	  0.319937	  0.047882	  0.689265	  0.371470	  0.771640	  1.204619	  0.469919	
2.598	  0.312494	  0.795223	  0.057067	  0.131944	  0.167691	  0.050391	  0.213147	  0.372134	  0.410013	  0.322335	  0.048244	  0.687158	  0.374482	  0.771117	  1.216208	  0.468760	
2.5985	  0.311386	  0.798441	  0.057277	  0.132136	  0.165848	  0.050509	  0.212674	  0.371262	  0.411311	  0.324715	  0.048602	  0.684914	  0.377486	  0.770526	  1.227909	  0.467543	
